<svg width="48" height="48" viewBox="0 0 48 48" fill="none" xmlns="http://www.w3.org/2000/svg">
<path d="M17.8054 7H28.1621C28.4453 7 28.7019 7.11411 28.8876 7.29855L38.6994 17.0421C38.8998 17.2411 39 17.5025 39 17.7626V31.2559C39 32.5987 38.4468 33.8194 37.5569 34.7044C36.8768 35.3797 35.9989 35.8587 35.0208 36.0485C34.8297 37.0211 34.3474 37.8915 33.6673 38.5669L33.6031 38.6253C32.7172 39.4745 31.5133 40 30.1945 40H13.9157C12.5622 40 11.3342 39.4507 10.4431 38.5669C9.55319 37.6832 9 36.4625 9 35.1185V15.7445C9 14.4044 9.55452 13.1836 10.4458 12.2984C11.1246 11.6217 12.0011 11.1414 12.9805 10.953C13.1716 9.98036 13.654 9.10991 14.3341 8.43452L14.3982 8.37613C15.2841 7.52692 16.488 7.00146 17.8068 7.00146L17.8054 7ZM31.9918 22.3762C32.5583 22.3762 33.018 22.8326 33.018 23.3952C33.018 23.9578 32.5583 24.4143 31.9918 24.4143H19.8981C19.3316 24.4143 18.872 23.9578 18.872 23.3952C18.872 22.8326 19.3316 22.3762 19.8981 22.3762H31.9918ZM31.9918 28.0102C32.5583 28.0102 33.018 28.4667 33.018 29.0292C33.018 29.5918 32.5583 30.0483 31.9918 30.0483H19.8981C19.3316 30.0483 18.872 29.5918 18.872 29.0292C18.872 28.4667 19.3316 28.0102 19.8981 28.0102H31.9918ZM36.9476 18.7816H32.052C30.7025 18.7816 29.4731 18.2323 28.5807 17.3472C27.6895 16.4609 27.1363 15.2415 27.1363 13.9001V9.03855H17.8058C17.0389 9.03855 16.3427 9.33976 15.8296 9.82672L15.7842 9.87449C15.2644 10.3906 14.9424 11.1005 14.9424 11.8821V31.256C14.9424 32.0389 15.2644 32.7501 15.7815 33.2663C16.3013 33.7811 17.0175 34.0995 17.8059 34.0995H34.0847C34.8704 34.0995 35.5865 33.7784 36.1063 33.2636C36.6261 32.7475 36.9481 32.0362 36.9481 31.256L36.9476 18.7816Z" fill="url(#paint0_linear_2_7)"/>
<defs>
<linearGradient id="paint0_linear_2_7" x1="24" y1="7" x2="24" y2="40" gradientUnits="userSpaceOnUse">
<stop stop-color="#964B00"/>
<stop offset="1" stop-color="#ef4444"/>
</linearGradient>
</defs>
</svg>
